HIERARCHY
ROOT root
{
	OFFSET	0	13.1	24.9
	CHANNELS 6  Xposition Yposition Zposition Xrotation Yrotation Zrotation
	JOINT spine_1
	{
		OFFSET	0	9.99999	0
		CHANNELS 3  Xrotation Yrotation Zrotation
		JOINT spine_2
		{
			OFFSET	0	112	-10
			CHANNELS 3  Xrotation Yrotation Zrotation
			JOINT spine_3
			{
				OFFSET	0	206.5	19.3
				CHANNELS 3  Xrotation Yrotation Zrotation
				JOINT spine_4
				{
					OFFSET	0	110.4	14.6
					CHANNELS 3  Xrotation Yrotation Zrotation
					JOINT neck_1
					{
						OFFSET	0	71.8	-50.3
						CHANNELS 3  Xrotation Yrotation Zrotation
						JOINT neck_2
						{
							OFFSET	0	86.2	-25.8
							CHANNELS 3  Xrotation Yrotation Zrotation
							JOINT head_ee
							{
								OFFSET	0	179.8	-8.7
								CHANNELS 3  Xrotation Yrotation Zrotation
								End Site
								{
									OFFSET	1	0	0
								}
							}
						}
					}
					JOINT left_clavicle
					{
						OFFSET	-43.2	22.4	-70.8
						CHANNELS 3  Xrotation Yrotation Zrotation
						JOINT left_shoulder
						{
							OFFSET	-93.9	-5.79999	48.7
							CHANNELS 3  Xrotation Yrotation Zrotation
							JOINT left_elbow
							{
								OFFSET	-291.4	-30.8	15.2
								CHANNELS 3  Xrotation Yrotation Zrotation
								JOINT left_lowarm_twist
								{
									OFFSET	-110.7	-3.89999	13.6
									CHANNELS 3  Xrotation Yrotation Zrotation
									JOINT left_hand
									{
										OFFSET	-110.7	-3.89999	13.6
										CHANNELS 3  Xrotation Yrotation Zrotation
										JOINT left_ee
										{
											OFFSET	-80.8	-5.10001	12.1
											CHANNELS 3  Xrotation Yrotation Zrotation
											End Site
											{
												OFFSET	1	0	0
											}
										}
									}
								}
							}
						}
					}
					JOINT right_clavicle
					{
						OFFSET	43.2	22.4	-70.8
						CHANNELS 3  Xrotation Yrotation Zrotation
						JOINT right_shoulder
						{
							OFFSET	93.9	-5.79999	48.7
							CHANNELS 3  Xrotation Yrotation Zrotation
							JOINT right_elbow
							{
								OFFSET	291.4	-30.8	15.2
								CHANNELS 3  Xrotation Yrotation Zrotation
								JOINT right_lowarm_twist
								{
									OFFSET	110.7	-3.89999	13.6
									CHANNELS 3  Xrotation Yrotation Zrotation
									JOINT right_hand
									{
										OFFSET	110.7	-3.89999	13.6
										CHANNELS 3  Xrotation Yrotation Zrotation
										JOINT right_ee
										{
											OFFSET	80.8	-5.10001	12.1
											CHANNELS 3  Xrotation Yrotation Zrotation
											End Site
											{
												OFFSET	1	0	0
											}
										}
									}
								}
							}
						}
					}
				}
			}
		}
	}
	JOINT left_hip
	{
		OFFSET	-82.8	-127.5	0.300001
		CHANNELS 3  Xrotation Yrotation Zrotation
		JOINT left_knee
		{
			OFFSET	-28.2	-396.7	2.2
			CHANNELS 3  Xrotation Yrotation Zrotation
			JOINT left_ankle
			{
				OFFSET	-11.7	-411.3	35.4
				CHANNELS 3  Xrotation Yrotation Zrotation
				JOINT left_toes
				{
					OFFSET	0	-60	-88.6
					CHANNELS 3  Xrotation Yrotation Zrotation
					JOINT left_foot_ee
					{
						OFFSET	-22.5	-16.5	-42.2
						CHANNELS 3  Xrotation Yrotation Zrotation
						End Site
						{
							OFFSET	1	0	0
						}
					}
				}
			}
		}
	}
	JOINT right_hip
	{
		OFFSET	82.8	-127.5	0.300001
		CHANNELS 3  Xrotation Yrotation Zrotation
		JOINT right_knee
		{
			OFFSET	28.2	-396.7	2.2
			CHANNELS 3  Xrotation Yrotation Zrotation
			JOINT right_ankle
			{
				OFFSET	11.7	-411.3	35.4
				CHANNELS 3  Xrotation Yrotation Zrotation
				JOINT right_toes
				{
					OFFSET	0	-60	-88.6
					CHANNELS 3  Xrotation Yrotation Zrotation
					JOINT right_foot_ee
					{
						OFFSET	22.5	-16.5	-42.2
						CHANNELS 3  Xrotation Yrotation Zrotation
						End Site
						{
							OFFSET	1	0	0
						}
					}
				}
			}
		}
	}
}
MOTION
Frames: 10
Frame Time: 0.02
1019.1492932 751.793 -1563.76737875 24.2028237901 64.7789758893 -18.2399211815 -2.02375 -0.0743909 -1.41356 -2.02264 0.0156993 -1.41543 -2.02199 0.361423 -1.36861 -2.02458 0.140764 -1.4085 -17.7384 8.79691 9.41735 -17.6389 11.778 12.0847 -0.0 0.0 -0.0 5.47103 20.5718 10.4087 -15.9639 -14.3073 64.2944 0.325381 -9.15661 0.0260556 0.429846 0.0149468 -0.0528627 -1.07697 27.2927 4.77924 -0.0 0.0 -0.0 8.45877 5.9085 -16.5628 14.7341 8.32575 -71.0604 0.914627 24.374 -0.197536 44.5913 0.609363 5.52192 -3.24792 -28.7408 6.2998 0.0 0.0 0.0 8.90082 18.0146 -19.5598 -52.4381 -1.44108 7.64161 17.7472 -5.48525 -2.50981 -12.4262 0.0 0.0 -0.0 0.0 -0.0 -6.4802 16.5274 -13.6127 3.84716 0.177437 0.563508 22.2202 11.0226 3.15492 -34.5608 0.0 0.0 0.0 0.0 0.0 
992.108979079 752.959 -1559.78014485 30.263921311 67.1468353792 -24.0577220225 -2.34725 -0.152171 -1.28063 -2.34634 -0.0703803 -1.28771 -2.34375 0.253794 -1.26442 -2.34597 0.0509349 -1.28863 -16.4365 9.95774 6.9119 -16.5319 15.1868 10.0319 -0.0 0.0 -0.0 5.71027 20.837 10.7529 -16.67 -13.6101 63.16 0.223476 -6.31728 0.0123324 2.16903 0.0713573 -0.26783 -0.754301 28.8625 7.18165 -0.0 0.0 -0.0 8.16548 7.70194 -15.922 15.6256 9.23835 -71.4496 0.927335 24.6725 -0.20281 46.5561 0.73344 5.74061 -2.20302 -28.7764 0.652573 0.0 0.0 0.0 13.7382 22.0984 -23.5777 -54.3971 -1.6263 7.87995 13.4969 -7.21065 -1.95947 -11.2401 0.0 0.0 -0.0 0.0 -0.0 -8.55115 15.851 -13.2251 -0.824308 -0.033063 -0.122178 24.909 10.659 3.47713 -32.7095 0.0 0.0 0.0 0.0 0.0 
965.923743626 750.58 -1552.31649155 36.7003663588 69.6344023428 -30.7144314746 -2.52216 -0.116272 -1.24135 -2.52131 -0.0370524 -1.24623 -2.51955 0.279427 -1.21507 -2.5216 0.0840385 -1.24395 -12.9321 10.6594 5.10459 -13.047 17.0864 8.0569 -0.0 0.0 -0.0 5.84653 22.0415 10.8891 -18.5251 -13.2555 61.5515 0.228563 -6.45986 0.0128984 0.774976 0.0266601 -0.0953859 -0.901035 29.0035 6.44494 -0.0 0.0 -0.0 8.22982 7.97176 -16.0532 17.0108 8.78121 -70.1957 0.981251 25.9231 -0.225851 50.2376 0.985871 6.13852 -0.941491 -28.7762 -6.13386 0.0 0.0 0.0 15.0894 21.0831 -24.4344 -53.4432 -1.53508 7.76467 11.6939 -10.5175 -1.73996 -11.2171 0.0 0.0 -0.0 0.0 -0.0 -11.1756 15.879 -12.4628 -5.14589 -0.177405 -0.769551 27.808 10.8496 3.81954 -26.5453 0.0 0.0 0.0 0.0 0.0 
963.687213498 750.58 -1539.42467059 39.8465667033 71.0587882468 -34.05488852 -2.52216 -0.116272 -1.24135 -2.52131 -0.0370524 -1.24623 -2.51955 0.279427 -1.21507 -2.5216 0.0840385 -1.24395 -12.9321 10.6594 5.10459 -13.047 17.0864 8.0569 -0.0 0.0 -0.0 5.84653 22.0415 10.8891 -18.5251 -13.2555 61.5515 0.228563 -6.45986 0.0128984 0.774976 0.0266601 -0.0953859 -0.901035 29.0035 6.44494 -0.0 0.0 -0.0 8.22982 7.97176 -16.0532 17.0108 8.78121 -70.1957 0.981251 25.9231 -0.225851 50.2376 0.985871 6.13852 -0.941491 -28.7762 -6.13386 0.0 0.0 0.0 15.0894 21.0831 -24.4344 -53.4432 -1.53508 7.76467 11.6939 -10.5175 -1.73996 -11.2171 0.0 0.0 -0.0 0.0 -0.0 -11.1756 15.879 -12.4628 -5.14589 -0.177405 -0.769551 27.808 10.8496 3.81954 -26.5453 0.0 0.0 0.0 0.0 0.0 
942.141247178 746.252 -1527.96250092 46.8507849266 72.4652507225 -41.1157159357 -2.75727 0.00856859 -1.17155 -2.75652 0.0830951 -1.16864 -2.75745 0.380658 -1.10803 -2.75911 0.2009 -1.15424 -11.353 10.3785 3.4015 -11.4668 17.4289 6.11806 -0.0 0.0 -0.0 5.47178 21.7142 10.3599 -19.7271 -12.9481 61.7513 0.232603 -6.57306 0.013357 0.146568 0.00514108 -0.0180126 -0.324772 29.0603 9.58962 -0.0 0.0 -0.0 8.53221 9.61829 -16.6625 18.379 9.52248 -69.4525 1.00279 26.4155 -0.235352 53.003 1.19209 6.42643 -0.0780158 -26.6567 -10.0815 0.0 0.0 0.0 17.9639 23.3825 -26.1382 -43.7864 -0.725057 6.52003 10.7491 -12.3156 -1.6231 -12.6798 0.0 0.0 -0.0 0.0 -0.0 -13.6174 16.2259 -12.5828 -6.92474 -0.222553 -1.0388 24.1624 9.61071 3.36861 -22.3974 0.0 0.0 0.0 0.0 0.0 
925.136250906 743.725 -1512.83107576 53.4263242406 73.7709702657 -47.993807403 -2.8406 0.0591019 -1.12622 -2.83991 0.130642 -1.12018 -2.84181 0.415701 -1.04837 -2.84326 0.244924 -1.10086 -10.0839 10.8877 0.488779 -10.2222 20.1846 3.24751 -0.0 0.0 -0.0 6.04611 22.5866 11.1448 -20.8576 -11.7933 60.3766 0.192661 -5.45185 0.00917304 -1.36847 -0.0502228 0.167535 -0.0481315 29.2591 11.1703 -0.0 0.0 -0.0 9.00324 14.6105 -17.5096 19.9423 8.53058 -65.4285 0.979705 25.8876 -0.225176 57.5442 1.56024 6.87682 1.47889 -23.8615 -18.274 0.0 0.0 0.0 18.168 21.7465 -22.636 -35.6712 -0.214582 5.38282 8.83158 -6.5798 -1.30197 -13.4159 0.0 0.0 -0.0 0.0 -0.0 -15.3629 17.2943 -11.7753 -7.85702 -0.24287 -1.18042 19.5998 9.67221 2.80047 -18.1892 0.0 0.0 0.0 0.0 0.0 
909.622279534 745.542 -1505.45415691 57.9741935901 74.685942668 -52.7623608604 -3.0599 0.04846 -1.07942 -3.05926 0.117044 -1.07415 -3.06081 0.394513 -1.00592 -3.06215 0.230705 -1.05559 -10.522 11.1376 0.254309 -10.6917 20.8498 3.16882 -0.0 0.0 -0.0 5.90633 23.3301 10.8972 -21.4976 -11.1485 60.2716 0.277503 -7.82739 0.018985 -2.20639 -0.0829471 0.269518 0.787181 29.5265 15.8716 -0.0 0.0 -0.0 9.3811 18.1182 -18.1512 21.0432 7.98377 -62.8938 1.01623 26.7206 -0.241362 61.9993 1.95512 7.28924 2.52707 -21.4525 -24.2385 0.0 0.0 0.0 18.4724 21.7106 -20.4794 -28.5954 0.0952978 4.34197 6.7167 -2.93362 -0.983161 -14.594 0.0 0.0 -0.0 0.0 -0.0 -17.4674 18.807 -11.3023 -4.68838 -0.164443 -0.700535 12.7548 6.83591 1.85427 -14.8336 0.0 0.0 0.0 0.0 0.0 
895.977881272 741.216 -1496.96691549 61.1957994728 75.3836713439 -56.2736119456 -3.12575 -0.0467538 -0.817901 -3.12538 0.00538437 -0.819219 -3.12501 0.220795 -0.788924 -3.12586 0.0934325 -0.813891 -9.5041 11.1601 -2.12083 -9.62396 22.416 0.667712 -0.0 0.0 -0.0 6.32036 23.6215 11.4635 -21.9628 -10.6271 59.4113 0.197894 -5.59901 0.00967691 -3.81694 -0.150025 0.464164 0.732684 29.5756 15.5817 -0.0 0.0 -0.0 9.56905 20.7366 -18.3848 21.2116 7.81599 -60.5162 1.1068 28.7341 -0.283507 63.7302 2.11704 7.44106 3.52406 -20.5574 -30.8176 0.0 0.0 0.0 18.907 20.5008 -19.0517 -22.7954 0.251973 3.46604 5.34116 -1.50871 -0.781711 -15.5504 0.0 0.0 -0.0 0.0 -0.0 -18.7909 20.6366 -10.5085 -3.71228 -0.134946 -0.553639 13.4145 8.43055 1.95967 -12.5418 0.0 0.0 0.0 0.0 0.0 
895.766519363 741.216 -1491.70140273 63.3695062243 75.6784032161 -58.518494809 -3.12575 -0.0467538 -0.817901 -3.12538 0.00538437 -0.819219 -3.12501 0.220795 -0.788924 -3.12586 0.0934325 -0.813891 -9.5041 11.1601 -2.12083 -9.62396 22.416 0.667712 -0.0 0.0 -0.0 6.32036 23.6215 11.4635 -21.9628 -10.6271 59.4113 0.197894 -5.59901 0.00967691 -3.81694 -0.150025 0.464164 0.732684 29.5756 15.5817 -0.0 0.0 -0.0 9.56905 20.7366 -18.3848 21.2116 7.81599 -60.5162 1.1068 28.7341 -0.283507 63.7302 2.11704 7.44106 3.52406 -20.5574 -30.8176 0.0 0.0 0.0 18.907 20.5008 -19.0517 -22.7954 0.251973 3.46604 5.34116 -1.50871 -0.781711 -15.5504 0.0 0.0 -0.0 0.0 -0.0 -18.7909 20.6366 -10.5085 -3.71228 -0.134946 -0.553639 13.4145 8.43055 1.95967 -12.5418 0.0 0.0 0.0 0.0 0.0 
895.592204699 741.216 -1485.49423287 66.0447759192 75.9974583168 -61.2775785505 -3.12575 -0.0467538 -0.817901 -3.12538 0.00538437 -0.819219 -3.12501 0.220795 -0.788924 -3.12586 0.0934325 -0.813891 -9.5041 11.1601 -2.12083 -9.62396 22.416 0.667712 -0.0 0.0 -0.0 6.32036 23.6215 11.4635 -21.9628 -10.6271 59.4113 0.197894 -5.59901 0.00967691 -3.81694 -0.150025 0.464164 0.732684 29.5756 15.5817 -0.0 0.0 -0.0 9.56905 20.7366 -18.3848 21.2116 7.81599 -60.5162 1.1068 28.7341 -0.283507 63.7302 2.11704 7.44106 3.52406 -20.5574 -30.8176 0.0 0.0 0.0 18.907 20.5008 -19.0517 -22.7954 0.251973 3.46604 5.34116 -1.50871 -0.781711 -15.5504 0.0 0.0 -0.0 0.0 -0.0 -18.7909 20.6366 -10.5085 -3.71228 -0.134946 -0.553639 13.4145 8.43055 1.95967 -12.5418 0.0 0.0 0.0 0.0 0.0 
